{
    "asset" : {
        "generator" : "Khronos glTF Blender I/O v1.6.16",
        "version" : "2.0"
    },
    "scene" : 0,
    "scenes" : [
        {
            "name" : "Scene",
            "nodes" : [
                0,
                1,
                2,
                3,
                4,
                5,
                6,
                7,
                8,
                9,
                10,
                11,
                12,
                13,
                14,
                15,
                16,
                17
            ]
        }
    ],
    "nodes" : [
        {
            "mesh" : 0,
            "name" : "Terrain"
        },
        {
            "mesh" : 1,
            "name" : "Terrain_envelope"
        },
        {
            "mesh" : 2,
            "name" : "map_6.osm_buildings"
        },
        {
            "mesh" : 3,
            "name" : "map_6.osm_water",
            "translation" : [
                0,
                55,
                0
            ]
        },
        {
            "name" : "map_6.osm_roads_unclassified",
            "translation" : [
                0,
                55,
                0
            ]
        },
        {
            "name" : "map_6.osm_roads_pedestrian",
            "translation" : [
                0,
                55,
                0
            ]
        },
        {
            "name" : "map_6.osm_railways",
            "translation" : [
                0,
                55,
                0
            ]
        },
        {
            "name" : "map_6.osm_paths_cycleway",
            "translation" : [
                0,
                55,
                0
            ]
        },
        {
            "name" : "map_6.osm_paths_footway",
            "translation" : [
                0,
                55,
                0
            ]
        },
        {
            "name" : "map_6.osm_roads_residential",
            "translation" : [
                0,
                55,
                0
            ]
        },
        {
            "name" : "map_6.osm_roads_service",
            "translation" : [
                0,
                55,
                0
            ]
        },
        {
            "name" : "profile_roads_unclassified",
            "translation" : [
                0,
                0,
                -8.805717468261719
            ]
        },
        {
            "name" : "profile_roads_residential",
            "translation" : [
                0,
                0,
                -6.9708662033081055
            ]
        },
        {
            "name" : "profile_paths_footway",
            "translation" : [
                0,
                0,
                -4.489185333251953
            ]
        },
        {
            "name" : "profile_roads_service",
            "translation" : [
                0,
                0,
                -3.567683458328247
            ]
        },
        {
            "name" : "profile_roads_pedestrian",
            "translation" : [
                0,
                0,
                -2.479302167892456
            ]
        },
        {
            "name" : "profile_paths_cycleway",
            "translation" : [
                0,
                0,
                -0.2683899998664856
            ]
        },
        {
            "name" : "profile_railways",
            "translation" : [
                0,
                0,
                3.535358190536499
            ]
        }
    ],
    "materials" : [
        {
            "doubleSided" : true,
            "name" : "wall",
            "pbrMetallicRoughness" : {
                "baseColorFactor" : [
                    1,
                    0.5,
                    0.20000000298023224,
                    1
                ],
                "metallicFactor" : 0,
                "roughnessFactor" : 0.4000000059604645
            }
        },
        {
            "doubleSided" : true,
            "name" : "roof",
            "pbrMetallicRoughness" : {
                "baseColorFactor" : [
                    0.28999999165534973,
                    0.25,
                    0.20999999344348907,
                    1
                ],
                "metallicFactor" : 0,
                "roughnessFactor" : 0.4000000059604645
            }
        },
        {
            "doubleSided" : true,
            "name" : "water",
            "pbrMetallicRoughness" : {
                "baseColorFactor" : [
                    0.008999999612569809,
                    0.0020000000949949026,
                    0.800000011920929,
                    1
                ],
                "metallicFactor" : 0,
                "roughnessFactor" : 0.4000000059604645
            }
        }
    ],
    "meshes" : [
        {
            "name" : "Terrain",
            "primitives" : [
                {
                    "attributes" : {
                        "POSITION" : 0,
                        "NORMAL" : 1
                    },
                    "indices" : 2
                }
            ]
        },
        {
            "name" : "Terrain_envelope",
            "primitives" : [
                {
                    "attributes" : {
                        "POSITION" : 3,
                        "NORMAL" : 4
                    },
                    "indices" : 5
                }
            ]
        },
        {
            "name" : "map_6.osm_buildings",
            "primitives" : [
                {
                    "attributes" : {
                        "POSITION" : 6,
                        "NORMAL" : 7
                    },
                    "indices" : 8,
                    "material" : 0
                },
                {
                    "attributes" : {
                        "POSITION" : 9,
                        "NORMAL" : 10
                    },
                    "indices" : 11,
                    "material" : 1
                }
            ]
        },
        {
            "name" : "map_6.osm_water",
            "primitives" : [
                {
                    "attributes" : {
                        "POSITION" : 12,
                        "NORMAL" : 13
                    },
                    "indices" : 14,
                    "material" : 2
                }
            ]
        }
    ],
    "accessors" : [
        {
            "bufferView" : 0,
            "componentType" : 5126,
            "count" : 594,
            "max" : [
                304.62591552734375,
                35,
                319.357666015625
            ],
            "min" : [
                -307.5528259277344,
                0,
                -330.0123291015625
            ],
            "type" : "VEC3"
        },
        {
            "bufferView" : 1,
            "componentType" : 5126,
            "count" : 594,
            "type" : "VEC3"
        },
        {
            "bufferView" : 2,
            "componentType" : 5123,
            "count" : 3276,
            "type" : "SCALAR"
        },
        {
            "bufferView" : 3,
            "componentType" : 5126,
            "count" : 94,
            "max" : [
                304.1258850097656,
                0,
                318.857666015625
            ],
            "min" : [
                -307.05279541015625,
                0,
                -329.5122985839844
            ],
            "type" : "VEC3"
        },
        {
            "bufferView" : 4,
            "componentType" : 5126,
            "count" : 94,
            "type" : "VEC3"
        },
        {
            "bufferView" : 5,
            "componentType" : 5123,
            "count" : 276,
            "type" : "SCALAR"
        },
        {
            "bufferView" : 6,
            "componentType" : 5126,
            "count" : 1780,
            "max" : [
                261.2217102050781,
                40.32011032104492,
                215.78343200683594
            ],
            "min" : [
                -261.5123291015625,
                6.845039367675781,
                -207.81689453125
            ],
            "type" : "VEC3"
        },
        {
            "bufferView" : 7,
            "componentType" : 5126,
            "count" : 1780,
            "type" : "VEC3"
        },
        {
            "bufferView" : 8,
            "componentType" : 5123,
            "count" : 2670,
            "type" : "SCALAR"
        },
        {
            "bufferView" : 9,
            "componentType" : 5126,
            "count" : 445,
            "max" : [
                261.2217102050781,
                40.32011032104492,
                215.78343200683594
            ],
            "min" : [
                -261.5123291015625,
                13.805761337280273,
                -207.81689453125
            ],
            "type" : "VEC3"
        },
        {
            "bufferView" : 10,
            "componentType" : 5126,
            "count" : 445,
            "type" : "VEC3"
        },
        {
            "bufferView" : 11,
            "componentType" : 5123,
            "count" : 1047,
            "type" : "SCALAR"
        },
        {
            "bufferView" : 12,
            "componentType" : 5126,
            "count" : 443,
            "max" : [
                122.8464126586914,
                0,
                91.50651550292969
            ],
            "min" : [
                -247.2996826171875,
                0,
                -309.62109375
            ],
            "type" : "VEC3"
        },
        {
            "bufferView" : 13,
            "componentType" : 5126,
            "count" : 443,
            "type" : "VEC3"
        },
        {
            "bufferView" : 14,
            "componentType" : 5123,
            "count" : 1296,
            "type" : "SCALAR"
        }
    ],
    "bufferViews" : [
        {
            "buffer" : 0,
            "byteLength" : 7128,
            "byteOffset" : 0
        },
        {
            "buffer" : 0,
            "byteLength" : 7128,
            "byteOffset" : 7128
        },
        {
            "buffer" : 0,
            "byteLength" : 6552,
            "byteOffset" : 14256
        },
        {
            "buffer" : 0,
            "byteLength" : 1128,
            "byteOffset" : 20808
        },
        {
            "buffer" : 0,
            "byteLength" : 1128,
            "byteOffset" : 21936
        },
        {
            "buffer" : 0,
            "byteLength" : 552,
            "byteOffset" : 23064
        },
        {
            "buffer" : 0,
            "byteLength" : 21360,
            "byteOffset" : 23616
        },
        {
            "buffer" : 0,
            "byteLength" : 21360,
            "byteOffset" : 44976
        },
        {
            "buffer" : 0,
            "byteLength" : 5340,
            "byteOffset" : 66336
        },
        {
            "buffer" : 0,
            "byteLength" : 5340,
            "byteOffset" : 71676
        },
        {
            "buffer" : 0,
            "byteLength" : 5340,
            "byteOffset" : 77016
        },
        {
            "buffer" : 0,
            "byteLength" : 2094,
            "byteOffset" : 82356
        },
        {
            "buffer" : 0,
            "byteLength" : 5316,
            "byteOffset" : 84452
        },
        {
            "buffer" : 0,
            "byteLength" : 5316,
            "byteOffset" : 89768
        },
        {
            "buffer" : 0,
            "byteLength" : 2592,
            "byteOffset" : 95084
        }
    ],
    "buffers" : [
        {
            "byteLength" : 97676,
            "uri" : "data:application/octet-stream;base64,"
        }
    ]
}
